# xmcd
#
# Track frame offsets:
#	150
#	15017
#	25817
#	44267
#	59164
#	70359
#	85177
#	97614
#	114248
#	129332
#	140053
#	158269
#	171438
#	187776
#	202479
#
# Disc length: 2879 seconds
#
# Revision: 0
# Processed by: cddbd v1.5.2PL0 Copyright (c) Steve Scherf et al.
# Submitted via: audiograbber 1.83.01
#
DISCID=bf0b3d0f
DTITLE=American Profile - Country Gospel Favorites 2 - Disc 1
DYEAR=2009
DGENRE=Gospel
TTITLE0=Ray Price - How Great Thou Art
TTITLE1=Slim Whitman - He Keeps Me Singing
TTITLE2=Brenda Lee - Precious Memories
TTITLE3=Roy Clark - The King's Highway
TTITLE4=Pat Boone - Nothing But The Blood Of Jesus
TTITLE5=Bill Anderson - Love Lifted Me
TTITLE6=The Jordanaires - When We All Get To Heaven
TTITLE7=Craig Duncan - There's Something About That Name
TTITLE8=The Country Dance Kings - Three Wooden Crosses
TTITLE9=Ray Price - Rock Of Ages
TTITLE10=T. Graham Brown - Old Rugged Cross
TTITLE11=Patsy Cline - Life's Railway To Heaven
TTITLE12=Ed Bruce - In The Garden
TTITLE13=Pat Boone - I Would Crawl All The Way
TTITLE14=Janie Fricke - People Get Ready
EXTD=
EXTT0=
EXTT1=
EXTT2=
EXTT3=
EXTT4=
EXTT5=
EXTT6=
EXTT7=
EXTT8=
EXTT9=
EXTT10=
EXTT11=
EXTT12=
EXTT13=
EXTT14=
PLAYORDER=
